<?xml version="1.0" standalone="no"?><!DOCTYPE svg PUBLIC "-//W3C//DTD SVG 1.1//EN" "http://www.w3.org/Graphics/SVG/1.1/DTD/svg11.dtd"><svg class="icon" width="200px" height="200.00px" viewBox="0 0 1024 1024" version="1.1" xmlns="http://www.w3.org/2000/svg"><path d="M707.339472 990.055249H141.593616c-62.232044 0-113.149171-50.917127-113.149172-113.149172v-203.668508l39.60221-5.657459c79.20442-5.657459 101.834254-33.944751 101.834255-96.176795S141.593616 480.883978 68.046654 475.226519L28.444444 469.569061V305.502762c0-62.232044 50.917127-113.149171 113.149172-113.149171h113.149171v-22.629834c0-96.176796 73.546961-169.723757 169.723757-169.723757s169.723757 73.546961 169.723757 169.723757v22.629834h113.149171c62.232044 0 113.149171 50.917127 113.149171 113.149171v90.519337c96.176796 0 169.723757 73.546961 169.723757 169.723757s-73.546961 169.723757-169.723757 169.723757v135.779006c0 67.889503-50.917127 118.80663-113.149171 118.80663zM113.306323 752.441989v130.121547c0 16.972376 11.314917 28.287293 28.287293 28.287293h565.745856c16.972376 0 28.287293-11.314917 28.287293-28.287293v-220.640884H820.488643c45.259669 0 84.861878-39.60221 84.861879-84.861879s-39.60221-84.861878-84.861879-84.861878h-84.861878V316.81768c0-16.972376-11.314917-28.287293-28.287293-28.287293H498.013505l11.314917-96.176796v-11.314917c0-45.259669-39.60221-84.861878-84.861878-84.861878s-84.861878 39.60221-84.861879 84.861878v11.314917L350.919583 288.530387H141.593616c-16.972376 0-28.287293 11.314917-28.287293 28.287293V401.679558C209.483118 418.651934 254.742787 480.883978 254.742787 577.060773s-45.259669 152.751381-141.436464 175.381216z" fill="#FFFFFF" /></svg>