<?xml version="1.0" standalone="no"?><!DOCTYPE svg PUBLIC "-//W3C//DTD SVG 1.1//EN" "http://www.w3.org/Graphics/SVG/1.1/DTD/svg11.dtd"><svg class="icon" width="200px" height="200.00px" viewBox="0 0 1024 1024" version="1.1" xmlns="http://www.w3.org/2000/svg"><path d="M801.664 1002.496h-186.624a26.453333 26.453333 0 0 1-26.453333-26.453333v-358.826667a24.064 24.064 0 0 0-24.064-24.021333h-102.314667a24.064 24.064 0 0 0-24.064 24.021333v358.826667a26.453333 26.453333 0 0 1-26.453333 26.453333H219.306667a77.952 77.952 0 0 1-77.952-77.952v-329.813333a17.92 17.92 0 0 0-17.92-17.92H74.325333c-45.866667 0-69.162667-55.04-37.290666-87.978667L474.837333 36.778667a51.882667 51.882667 0 0 1 74.197334-0.426667L992.682667 484.693333c33.834667 34.133333 9.6 92.16-38.442667 92.16H901.546667a19.285333 19.285333 0 0 0-19.285334 19.285334v325.802666a80.64 80.64 0 0 1-80.64 80.64z m-114.218667-66.517333h95.957334c17.877333 0 32.341333-14.506667 32.341333-32.341334v-360.277333c0-18.261333 14.805333-33.066667 33.066667-33.066667h61.994666a5.717333 5.717333 0 0 0 4.053334-9.728L527.957333 109.653333a21.845333 21.845333 0 0 0-31.232 0.170667l-387.84 400.512h65.962667c18.261333 0 33.066667 14.805333 33.066667 33.066667v360.277333c0 17.877333 14.506667 32.341333 32.341333 32.341333h98.986667c17.92 0 32.426667-14.506667 32.426666-32.341333V620.373333c0-51.797333 41.941333-93.738667 93.696-93.738666h96c51.754667 0 93.738667 41.941333 93.738667 93.738666v283.221334c0 17.877333 14.506667 32.341333 32.341333 32.341333z" fill="#FFFFFF" /></svg>